<mxfile host="app.diagrams.net" modified="2023-09-27T10:39:24.705Z" agent="Mozilla/5.0 (Windows NT 10.0; Win64; x64) AppleWebKit/537.36 (KHTML, like Gecko) Chrome/117.0.0.0 Safari/537.36" version="21.2.9" etag="_Dk-Lp4vL7IZ-cxYwjmv" type="github">
  <diagram name="Страница 1" id="FvW-8u6A8Kp4nERWcAdV">
    <mxGraphModel>
      <root>
        <mxCell id="0" />
        <mxCell id="1" parent="0" />
      </root>
    </mxGraphModel>
  </diagram>
</mxfile>
